<?xml version="1.0" encoding="UTF-8" standalone="no"?>
<!-- Created with Inkscape (http://www.inkscape.org/) -->

<svg
   xmlns:dc="http://purl.org/dc/elements/1.1/"
   xmlns:cc="http://creativecommons.org/ns#"
   xmlns:rdf="http://www.w3.org/1999/02/22-rdf-syntax-ns#"
   xmlns:svg="http://www.w3.org/2000/svg"
   xmlns="http://www.w3.org/2000/svg"
   xmlns:sodipodi="http://sodipodi.sourceforge.net/DTD/sodipodi-0.dtd"
   xmlns:inkscape="http://www.inkscape.org/namespaces/inkscape"
   width="210mm"
   height="297mm"
   viewBox="0 0 210 297"
   version="1.1"
   id="svg8"
   inkscape:version="0.92.3 (2405546, 2018-03-11)"
   sodipodi:docname="logo.svg">
  <defs
     id="defs2" />
  <sodipodi:namedview
     id="base"
     pagecolor="#ffffff"
     bordercolor="#666666"
     borderopacity="1.0"
     inkscape:pageopacity="0.0"
     inkscape:pageshadow="2"
     inkscape:zoom="15.839192"
     inkscape:cx="438.12851"
     inkscape:cy="730.9642"
     inkscape:document-units="mm"
     inkscape:current-layer="layer1"
     showgrid="false"
     inkscape:window-width="1463"
     inkscape:window-height="1368"
     inkscape:window-x="569"
     inkscape:window-y="0"
     inkscape:window-maximized="0" />
  <metadata
     id="metadata5">
    <rdf:RDF>
      <cc:Work
         rdf:about="">
        <dc:format>image/svg+xml</dc:format>
        <dc:type
           rdf:resource="http://purl.org/dc/dcmitype/StillImage" />
        <dc:title></dc:title>
      </cc:Work>
    </rdf:RDF>
  </metadata>
  <g
     inkscape:label="Layer 1"
     inkscape:groupmode="layer"
     id="layer1">
    <g
       id="g4541">
      <path
         style="stroke-width:0.26458332;fill:#00a5ff;fill-opacity:0.65829146"
         inkscape:connector-curvature="0"
         d="m 116.12591,102.57296 c -0.6006,-0.1561 -0.79375,-0.3175 -0.79375,-0.56885 0,-0.2884 0.26723,-0.48948 0.71438,-0.48948 0.47096,0 0.64558,0.22489 0.66146,0.55562 h 0.58473 c -0.0185,-0.45508 -0.29634,-0.87312 -0.84932,-1.00806 v -0.57944 h -0.79375 v 0.5715 c -0.51329,0.11113 -0.92604,0.4445 -0.92604,0.95515 0,0.61119 0.50536,0.91546 1.24354,1.09273 0.66146,0.15875 0.79375,0.39158 0.79375,0.63764 0,0.18257 -0.12964,0.47361 -0.71437,0.47361 -0.54504,0 -0.75935,-0.24342 -0.78846,-0.55563 H 114.676 c 0.0317,0.57944 0.46566,0.90488 0.97366,1.01336 v 0.57414 h 0.79375 v -0.56885 c 0.51594,-0.0979 0.92605,-0.39688 0.92605,-0.93927 0,-0.75142 -0.64294,-1.00807 -1.24355,-1.16417 z"
         id="path4518" />
      <rect
         y="100.36401"
         x="113.52273"
         height="5"
         width="5"
         id="rect4529"
         style="opacity:0.422;fill:none;fill-opacity:1;stroke:none;stroke-width:0.41666669;stroke-miterlimit:4;stroke-dasharray:1.67857145, 0.41666666;stroke-dashoffset:0;stroke-opacity:1" />
    </g>
  </g>
</svg>
